<mxfile host="app.diagrams.net" modified="2021-03-24T14:46:16.329Z" agent="5.0 (Windows NT 10.0; Win64; x64) AppleWebKit/537.36 (KHTML, like Gecko) Chrome/89.0.4389.90 Safari/537.36" etag="W6ncr1MUdIWmUmM91Ei4" version="14.4.9" type="github">
  <diagram id="lA62qS79ZRy9z6fSTnmt" name="Page-1">
    <mxGraphModel dx="1421" dy="794" grid="1" gridSize="10" guides="1" tooltips="1" connect="1" arrows="1" fold="1" page="1" pageScale="1" pageWidth="827" pageHeight="1169" math="0" shadow="0">
      <root>
        <mxCell id="0" />
        <mxCell id="1" parent="0" />
        <mxCell id="JIGqxUrqn0OuruRxq7ZE-1" value="User" style="shape=umlActor;verticalLabelPosition=bottom;verticalAlign=top;html=1;" parent="1" vertex="1">
          <mxGeometry x="50" y="170" width="30" height="60" as="geometry" />
        </mxCell>
        <mxCell id="JIGqxUrqn0OuruRxq7ZE-2" value="" style="shape=umlFrame;whiteSpace=wrap;html=1;width=10;height=15;" parent="1" vertex="1">
          <mxGeometry x="130" y="60" width="530" height="750" as="geometry" />
        </mxCell>
        <mxCell id="RubMhnppCJuH_t_vwR6a-1" value="NUIST Credit Management System" style="rounded=0;whiteSpace=wrap;html=1;" vertex="1" parent="1">
          <mxGeometry width="210" height="30" as="geometry" />
        </mxCell>
        <mxCell id="RubMhnppCJuH_t_vwR6a-2" value="Registration" style="ellipse;whiteSpace=wrap;html=1;" vertex="1" parent="1">
          <mxGeometry x="200" y="110" width="140" height="70" as="geometry" />
        </mxCell>
        <mxCell id="RubMhnppCJuH_t_vwR6a-3" value="Login" style="ellipse;whiteSpace=wrap;html=1;" vertex="1" parent="1">
          <mxGeometry x="200" y="200" width="140" height="70" as="geometry" />
        </mxCell>
        <mxCell id="RubMhnppCJuH_t_vwR6a-4" value="Admin" style="shape=umlActor;verticalLabelPosition=bottom;verticalAlign=top;html=1;" vertex="1" parent="1">
          <mxGeometry x="50" y="280" width="30" height="60" as="geometry" />
        </mxCell>
        <mxCell id="RubMhnppCJuH_t_vwR6a-7" value="" style="endArrow=none;html=1;exitX=0.5;exitY=0.5;exitDx=0;exitDy=0;exitPerimeter=0;entryX=0;entryY=0.5;entryDx=0;entryDy=0;" edge="1" parent="1" source="JIGqxUrqn0OuruRxq7ZE-1" target="RubMhnppCJuH_t_vwR6a-2">
          <mxGeometry width="50" height="50" relative="1" as="geometry">
            <mxPoint x="100" y="190" as="sourcePoint" />
            <mxPoint x="150" y="140" as="targetPoint" />
          </mxGeometry>
        </mxCell>
        <mxCell id="RubMhnppCJuH_t_vwR6a-8" value="Score Inquiry" style="ellipse;whiteSpace=wrap;html=1;" vertex="1" parent="1">
          <mxGeometry x="380" y="110" width="140" height="70" as="geometry" />
        </mxCell>
        <mxCell id="RubMhnppCJuH_t_vwR6a-9" value="Exam Inquiry" style="ellipse;whiteSpace=wrap;html=1;" vertex="1" parent="1">
          <mxGeometry x="380" y="200" width="140" height="70" as="geometry" />
        </mxCell>
        <mxCell id="RubMhnppCJuH_t_vwR6a-10" value="Course Management" style="ellipse;whiteSpace=wrap;html=1;" vertex="1" parent="1">
          <mxGeometry x="380" y="290" width="140" height="70" as="geometry" />
        </mxCell>
        <mxCell id="RubMhnppCJuH_t_vwR6a-11" value="Course Management" style="ellipse;whiteSpace=wrap;html=1;" vertex="1" parent="1">
          <mxGeometry x="380" y="380" width="140" height="70" as="geometry" />
        </mxCell>
      </root>
    </mxGraphModel>
  </diagram>
</mxfile>
